<?xml version="1.0"?>
<svg width="90" height="90" xmlns="http://www.w3.org/2000/svg" xmlns:svg="http://www.w3.org/2000/svg">
 <defs>
  <clipPath id="a">
   <path d="m0,0l90,0l0,90l-90,0l0,-90z" fill="#fff" id="svg_1"/>
  </clipPath>
 </defs>
 <g class="layer">
  <title>Layer 1</title>
  <g clip-path="url(#a)" id="svg_2">
   <path d="m55.07,46.68l-18.12,0l0,19.14l18.12,0l0,-19.14z" fill="#6B4D3A" id="svg_11"/>
   <path d="m68.13,78c6.87,0 5.82,-7.52 5.82,-10.44c0,-3.72 -2.23,-6.93 -5.43,-8.36l-13.44,-7.4s-0.06,-0.02 -0.1,-0.03a9.04,9.04 0 0 1 -8.98,7.9c-4.61,0 -8.42,-3.44 -8.98,-7.9c-0.04,0 -0.07,0.02 -0.1,0.03l-13.44,7.4a9.15,9.15 0 0 0 -5.42,8.36c0,2.92 -1.05,10.44 5.82,10.44l44.25,0z" fill="#87CBE3" id="svg_12"/>
   <path d="m32.36,37.99c0.52,9.83 6.42,17.6 13.64,17.6c7.22,0 13.13,-7.77 13.65,-17.6c0.02,0 -0.53,-6.84 -0.53,-6.84c-1.69,-7.83 -6.92,-13.55 -13.12,-13.55c-6.2,0 -11.43,5.72 -13.12,13.55l-0.53,6.84l0.01,0z" fill="#8D694B" id="svg_13"/>
   <path d="m61.98,22.02c-0.04,-7.57 -7.17,-13.69 -15.97,-13.69s-15.93,6.12 -15.97,13.69l0,11.46l4.57,0l0,-9.19l11.41,0l1.97,-5.62l3.87,1.14c0.75,1.49 2.29,2.53 4.07,2.53l0,4.38l1.51,0l0,6.76l4.56,0l0,-11.46l-0.02,0z" fill="#4A4743" id="svg_14"/>
   <path d="m55.91,15.64c-0.86,0 -1.66,0.25 -2.35,0.67c-1.04,-3.19 -4.02,-5.49 -7.55,-5.49c-4.4,0 -7.96,3.57 -7.96,7.96c0,0.49 0.05,0.96 0.14,1.43l-5.87,0l0,6.52l13.69,0a7.93,7.93 0 0 0 6.55,-3.44c0.84,0.91 2.03,1.5 3.36,1.5c2.53,0 4.57,-2.04 4.57,-4.57c0,-2.53 -2.04,-4.57 -4.57,-4.57l-0.01,-0.01z" fill="#4A4743" id="svg_15"/>
   <path d="m59.7,31.3l0,-4.24c0,-1.25 -1.03,-2.28 -2.29,-2.28l-2.28,0l-3.7,2.16c-7.05,-0.09 -16.15,-0.21 -16.84,-0.21c-1.26,0 -2.28,1.03 -2.28,2.29l0,2.28c-1.26,0 -2.28,1.03 -2.28,2.28l0,4.57c0,1.25 1.02,2.28 2.28,2.28l27.4,0c1.26,0 2.28,-1.02 2.28,-2.28l0,-4.57c0,-1.25 -1.02,-2.28 -2.28,-2.28l-0.01,0z" fill="#8D694B" id="svg_16"/>
  </g>
 </g>
</svg>